<?xml version="1.0" encoding="UTF-8" standalone="no"?>
<svg xmlns="http://www.w3.org/2000/svg" width="512" height="512" viewBox="131 -131 512 512">
<path fill="#FFF" d="M643-35.1v320.2c0,26.1-9.3,49.3-27.9,68c-18.6,18.6-41,27.9-68,27.9H226.9c-26.1,0-49.3-9.3-68-27.9c-18.6-18.6-27.9-41-27.9-68V-35.1c0-26.1,9.3-49.3,27.9-68s41-27.9,68-27.9h320.2c26.1,0,49.3,9.3,68,27.9C633.7-84.5,643-61.2,643-35.1z"/>
<path fill="#00A040" d="M359.1,259.1L563.9,54.3c4.7-4.7,6.5-9.3,6.5-14.9c0-5.6-1.9-11.2-6.5-14.9L529.4-10c-4.7-4.7-9.3-6.5-14.9-6.5c-5.6,0-11.2,1.9-14.9,6.5L344.2,146.4l-70.7-70.7c-4.7-4.7-9.3-6.5-14.9-6.5s-11.2,1.9-14.9,6.5l-33.5,34.4c-4.7,4.7-6.5,9.3-6.5,14.9c0,5.6,1.9,11.2,6.5,14.9l119.2,119.2c4.7,4.7,9.3,6.5,14.9,6.5S355.3,263.7,359.1,259.1zM643-35.1v320.2c0,26.1-9.3,49.3-27.9,68c-18.6,18.6-41,27.9-68,27.9H226.9c-26.1,0-49.3-9.3-68-27.9c-18.6-18.6-27.9-41-27.9-68V-35.1c0-26.1,9.3-49.3,27.9-68s41-27.9,68-27.9h320.2c26.1,0,49.3,9.3,68,27.9C633.7-84.5,643-61.2,643-35.1z"/>
</svg>
